# Blender 4.0.2
# www.blender.org
mtllib rus_build_9et_01_LOD1_2.mtl
o rus_build_9et_01_LOD1
v 11.000000 84.000000 15.999993
v 11.000000 84.000000 -16.000006
v -30.000000 84.000000 -16.000006
v -30.000000 84.000000 15.999993
v 45.000000 84.000000 23.999994
v 45.000000 44.000000 23.999996
v 45.000000 44.000000 -24.000004
v 45.000000 84.000000 -24.000006
v 45.000000 44.000000 23.999996
v 45.000000 0.000002 24.000000
v 45.000000 -0.000002 -24.000000
v 45.000000 44.000000 -24.000004
v 45.000000 84.000000 -24.000006
v 45.000000 44.000000 -24.000004
v 11.000000 44.000000 -24.000004
v 11.000000 84.000000 -24.000006
v 45.000000 44.000000 -24.000004
v 45.000000 -0.000002 -24.000000
v 11.000000 -0.000002 -24.000000
v 11.000000 44.000000 -24.000004
v -4.000000 76.000000 18.999994
v -4.000000 76.000000 15.999994
v -22.000000 76.000000 15.999994
v -22.000000 76.000000 18.999994
v -22.000000 4.000001 19.000000
v -22.000000 4.000001 16.000000
v -4.000000 4.000001 16.000000
v -4.000000 4.000001 19.000000
v -4.000000 76.000000 -16.000006
v -4.000000 76.000000 -19.000006
v -22.000000 76.000000 -19.000006
v -22.000000 76.000000 -16.000006
v -22.000000 3.999999 -16.000000
v -22.000000 3.999999 -19.000000
v -4.000000 3.999999 -19.000000
v -4.000000 3.999999 -16.000000
v 48.000000 76.000000 -17.000006
v 45.000000 76.000000 -17.000006
v 45.000000 76.000000 -7.000006
v 48.000000 76.000000 -7.000006
v 48.000000 4.000000 -7.000000
v 45.000000 4.000000 -7.000000
v 45.000000 3.999999 -17.000000
v 48.000000 3.999999 -17.000000
v 48.000000 76.000000 6.999994
v 45.000000 76.000000 6.999994
v 45.000000 76.000000 16.999994
v 48.000000 76.000000 16.999994
v 48.000000 4.000001 17.000000
v 45.000000 4.000001 17.000000
v 45.000000 4.000000 7.000000
v 48.000000 4.000000 7.000000
v -22.000000 84.000000 15.999993
v -22.000000 84.000000 18.999994
v -22.000000 0.000001 19.000000
v -22.000000 0.000001 16.000000
v -22.000000 0.000001 16.000000
v -22.000000 0.000001 19.000000
v -22.000000 84.000000 18.999994
v -22.000000 84.000000 15.999993
v -4.000000 84.000000 15.999993
v -4.000000 84.000000 18.999994
v -4.000000 0.000001 19.000000
v -4.000000 0.000001 16.000000
v -4.000000 0.000001 16.000000
v -4.000000 0.000001 19.000000
v -4.000000 84.000000 18.999994
v -4.000000 84.000000 15.999993
v -22.000000 84.000000 -19.000006
v -22.000000 84.000000 -16.000006
v -22.000000 -0.000001 -16.000000
v -22.000000 -0.000001 -19.000000
v -22.000000 -0.000001 -19.000000
v -22.000000 -0.000001 -16.000000
v -22.000000 84.000000 -16.000006
v -22.000000 84.000000 -19.000006
v -4.000000 84.000000 -19.000006
v -4.000000 84.000000 -16.000006
v -4.000000 -0.000001 -16.000000
v -4.000000 -0.000001 -19.000000
v -4.000000 -0.000001 -19.000000
v -4.000000 -0.000001 -16.000000
v -4.000000 84.000000 -16.000006
v -4.000000 84.000000 -19.000006
v 48.000000 84.000000 -17.000006
v 45.000000 84.000000 -17.000006
v 45.000000 -0.000001 -17.000000
v 48.000000 -0.000001 -17.000000
v 48.000000 -0.000001 -17.000000
v 45.000000 -0.000001 -17.000000
v 45.000000 84.000000 -17.000006
v 48.000000 84.000000 -17.000006
v 48.000000 84.000000 -7.000006
v 45.000000 84.000000 -7.000006
v 45.000000 -0.000001 -7.000000
v 48.000000 -0.000001 -7.000000
v 48.000000 -0.000001 -7.000000
v 45.000000 -0.000001 -7.000000
v 45.000000 84.000000 -7.000006
v 48.000000 84.000000 -7.000006
v 48.000000 84.000000 6.999994
v 45.000000 84.000000 6.999994
v 45.000000 0.000001 7.000000
v 48.000000 0.000001 7.000000
v 48.000000 0.000001 7.000000
v 45.000000 0.000001 7.000000
v 45.000000 84.000000 6.999994
v 48.000000 84.000000 6.999994
v 48.000000 84.000000 16.999994
v 45.000000 84.000000 16.999994
v 45.000000 0.000001 17.000000
v 48.000000 0.000001 17.000000
v 48.000000 0.000001 17.000000
v 45.000000 0.000001 17.000000
v 45.000000 84.000000 16.999994
v 48.000000 84.000000 16.999994
v 15.000000 87.000000 11.999993
v 15.000000 83.000000 11.999993
v 15.000000 83.000000 15.999993
v 15.000000 87.000000 15.999993
v 19.000000 83.000000 15.999993
v 19.000000 87.000000 15.999993
v 15.000000 87.000000 11.999993
v 15.000000 87.000000 15.999993
v 19.000000 87.000000 15.999993
v 19.000000 87.000000 11.999993
v 19.000000 87.000000 15.999993
v 19.000000 83.000000 15.999993
v 19.000000 83.000000 11.999993
v 19.000000 87.000000 11.999993
v 15.000000 83.000000 11.999993
v 37.000000 87.000000 11.999993
v 37.000000 83.000000 11.999993
v 37.000000 83.000000 15.999993
v 37.000000 87.000000 15.999993
v 41.000000 83.000000 15.999993
v 41.000000 87.000000 15.999993
v 37.000000 87.000000 11.999993
v 37.000000 87.000000 15.999993
v 41.000000 87.000000 15.999993
v 41.000000 87.000000 11.999993
v 41.000000 87.000000 15.999993
v 41.000000 83.000000 15.999993
v 41.000000 83.000000 11.999993
v 41.000000 87.000000 11.999993
v 37.000000 83.000000 11.999993
v 15.000000 87.000000 -16.000006
v 15.000000 83.000000 -16.000006
v 15.000000 83.000000 -12.000007
v 15.000000 87.000000 -12.000007
v 19.000000 83.000000 -12.000007
v 19.000000 87.000000 -12.000007
v 15.000000 87.000000 -16.000006
v 15.000000 87.000000 -12.000007
v 19.000000 87.000000 -12.000007
v 19.000000 87.000000 -16.000006
v 19.000000 87.000000 -12.000007
v 19.000000 83.000000 -12.000007
v 19.000000 83.000000 -16.000006
v 19.000000 87.000000 -16.000006
v 15.000000 83.000000 -16.000006
v 37.000000 87.000000 -16.000006
v 37.000000 83.000000 -16.000006
v 37.000000 83.000000 -12.000007
v 37.000000 87.000000 -12.000007
v 41.000000 83.000000 -12.000007
v 41.000000 87.000000 -12.000007
v 37.000000 87.000000 -16.000006
v 37.000000 87.000000 -12.000007
v 41.000000 87.000000 -12.000007
v 41.000000 87.000000 -16.000006
v 41.000000 87.000000 -12.000007
v 41.000000 83.000000 -12.000007
v 41.000000 83.000000 -16.000006
v 41.000000 87.000000 -16.000006
v 37.000000 83.000000 -16.000006
v 11.000000 44.000000 15.999997
v 11.000000 0.000001 16.000000
v 11.000000 0.000002 24.000000
v 11.000000 44.000000 23.999996
v 11.000000 44.000000 -24.000004
v 11.000000 -0.000002 -24.000000
v 11.000000 -0.000001 -16.000000
v 11.000000 44.000000 -16.000004
v 11.000000 84.000000 15.999993
v 11.000000 44.000000 15.999997
v 11.000000 44.000000 23.999996
v 11.000000 84.000000 23.999994
v 11.000000 84.000000 -24.000006
v 11.000000 44.000000 -24.000004
v 11.000000 44.000000 -16.000004
v 11.000000 84.000000 -16.000006
v 11.000000 8.000001 18.000000
v 11.000000 8.000001 15.999999
v -4.000000 8.000001 15.999999
v -4.000000 8.000001 18.000000
v -4.000000 8.000001 18.000000
v -4.000000 8.000001 15.999999
v 11.000000 8.000001 15.999999
v 11.000000 8.000001 18.000000
v 45.000000 84.000000 -0.000006
v 11.000000 84.000000 -0.000006
v 11.000000 84.000000 23.999994
v 45.000000 84.000000 23.999994
v 11.000000 84.000000 -0.000006
v 45.000000 84.000000 -0.000006
v 45.000000 84.000000 -24.000006
v 11.000000 84.000000 -24.000006
v -30.000000 84.000000 15.999993
v 11.000000 84.000000 15.999993
v -30.000000 44.000000 15.999997
v 11.000000 44.000000 15.999997
v -30.000000 44.000000 15.999997
v 11.000000 44.000000 15.999997
v -30.000000 0.000001 16.000000
v 11.000000 0.000001 16.000000
v 11.000000 84.000000 -16.000006
v -30.000000 84.000000 -16.000006
v 11.000000 44.000000 -16.000004
v -30.000000 44.000000 -16.000004
v 11.000000 44.000000 -16.000004
v -30.000000 44.000000 -16.000004
v 11.000000 -0.000001 -16.000000
v -30.000000 -0.000001 -16.000000
v 48.000000 76.000000 16.999994
v 48.000000 76.000000 6.999994
v 48.000000 4.000001 17.000000
v 48.000000 4.000000 7.000000
v 48.000000 76.000000 -7.000006
v 48.000000 76.000000 -17.000006
v 48.000000 4.000000 -7.000000
v 48.000000 3.999999 -17.000000
v -22.000000 76.000000 18.999994
v -4.000000 76.000000 18.999994
v -22.000000 4.000001 19.000000
v -4.000000 4.000001 19.000000
v -4.000000 76.000000 -19.000006
v -22.000000 76.000000 -19.000006
v -4.000000 3.999999 -19.000000
v -22.000000 3.999999 -19.000000
v -30.000000 84.000000 15.999993
v -30.000000 44.000000 15.999997
v -30.000000 44.000000 15.999997
v -30.000000 0.000001 16.000000
v -30.000000 44.000000 -16.000004
v -30.000000 84.000000 -16.000006
v -30.000000 -0.000001 -16.000000
v -30.000000 44.000000 -16.000004
v 11.000000 84.000000 23.999994
v 11.000000 44.000000 23.999996
v 45.000000 44.000000 23.999996
v 45.000000 84.000000 23.999994
v 11.000000 44.000000 23.999996
v 11.000000 0.000002 24.000000
v 45.000000 0.000002 24.000000
v 45.000000 44.000000 23.999996
vn -0.0000 1.0000 -0.0000
vn 1.0000 -0.0000 -0.0000
vn -0.0000 -0.0000 -1.0000
vn -0.0000 -1.0000 -0.0000
vn -1.0000 -0.0000 -0.0000
vn -0.0000 -0.0000 1.0000
vn -0.8944 0.0002 0.4472
vn -0.4472 -0.0002 0.8944
vn -0.0000 0.8944 -0.4472
vn 0.8944 0.0002 -0.4472
vn 0.4472 -0.0002 -0.8944
vt 0.843750 0.125000
vt 0.843750 0.000000
vt 1.000000 0.000000
vt 1.000000 0.125000
vt 0.000000 1.000000
vt 0.000000 0.843750
vt 0.187500 0.843750
vt 0.187500 1.000000
vt 0.000000 0.968750
vt 0.000000 0.796875
vt 0.187500 0.796875
vt 0.187500 0.968750
vt 0.432943 0.999874
vt 0.432943 0.843895
vt 0.565104 0.843895
vt 0.565104 0.999874
vt 0.432943 0.968584
vt 0.432943 0.796942
vt 0.565104 0.796942
vt 0.565104 0.968584
vt 0.781317 0.143087
vt 0.781317 0.154661
vt 0.722712 0.154661
vt 0.722712 0.143087
vt 0.752507 0.154168
vt 0.752507 0.142595
vt 0.998698 0.144531
vt 0.998698 0.154622
vt 0.688802 0.154622
vt 0.688802 0.144531
vt 0.859375 0.187500
vt 0.859375 0.171875
vt 0.875000 0.171875
vt 0.875000 0.187500
vt 0.890625 0.171875
vt 0.890625 0.187500
vt 0.906250 0.171875
vt 0.906250 0.187500
vt 0.938700 0.968750
vt 0.938700 0.796875
vt 0.969950 0.796875
vt 0.969950 0.968750
vt 0.938700 1.000000
vt 0.938700 0.843750
vt 0.969950 0.843750
vt 0.969950 1.000000
vt 0.906250 0.125000
vt 0.906250 0.000000
vt 0.562500 1.000000
vt 0.562500 0.843750
vt 0.718750 0.843750
vt 0.718750 1.000000
vt 0.562500 0.968750
vt 0.562500 0.796875
vt 0.718750 0.796875
vt 0.718750 0.968750
vt 0.281250 1.000000
vt 0.281250 0.843750
vt 0.437500 0.843750
vt 0.437500 1.000000
vt 0.281250 0.968750
vt 0.281250 0.796875
vt 0.437500 0.796875
vt 0.437500 0.968750
vt 0.656250 0.187500
vt 0.375000 0.187500
vt 0.375000 0.156250
vt 0.656250 0.156250
vt 0.375000 0.125000
vt 0.656250 0.125000
vt 0.000000 0.359375
vt 0.000000 0.078125
vt 0.062500 0.078125
vt 0.062500 0.359375
vt 0.125000 0.078125
vt 0.125000 0.359375
vt 0.435608 1.000000
vt 0.435608 0.843750
vt 0.435608 0.968750
vt 0.435608 0.796875
s 1
usemtl rus_build_LOD_02.004
f 1/1/1 2/2/1 3/3/1
f 1/1/1 3/3/1 4/4/1
f 5/5/2 6/6/2 7/7/2
f 5/5/2 7/7/2 8/8/2
f 9/9/2 10/10/2 11/11/2
f 9/9/2 11/11/2 12/12/2
f 13/13/3 14/14/3 15/15/3
f 13/13/3 15/15/3 16/16/3
f 17/17/3 18/18/3 19/19/3
f 17/17/3 19/19/3 20/20/3
f 21/21/1 22/22/1 23/23/1
f 21/21/1 23/23/1 24/24/1
f 25/21/4 26/22/4 27/23/4
f 25/21/4 27/23/4 28/24/4
f 29/21/1 30/22/1 31/23/1
f 29/21/1 31/23/1 32/24/1
f 33/21/4 34/22/4 35/23/4
f 33/21/4 35/23/4 36/24/4
f 37/25/1 38/23/1 39/24/1
f 37/25/1 39/24/1 40/26/1
f 41/26/4 42/24/4 43/23/4
f 41/26/4 43/23/4 44/25/4
f 45/25/1 46/23/1 47/24/1
f 45/25/1 47/24/1 48/26/1
f 49/26/4 50/24/4 51/23/4
f 49/26/4 51/23/4 52/25/4
f 53/27/2 54/28/2 55/29/2
f 53/27/2 55/29/2 56/30/2
f 57/27/5 58/28/5 59/29/5
f 57/27/5 59/29/5 60/30/5
f 61/27/2 62/28/2 63/29/2
f 61/27/2 63/29/2 64/30/2
f 65/27/5 66/28/5 67/29/5
f 65/27/5 67/29/5 68/30/5
f 69/27/2 70/28/2 71/29/2
f 69/27/2 71/29/2 72/30/2
f 73/27/5 74/28/5 75/29/5
f 73/27/5 75/29/5 76/30/5
f 77/27/2 78/28/2 79/29/2
f 77/27/2 79/29/2 80/30/2
f 81/27/5 82/28/5 83/29/5
f 81/27/5 83/29/5 84/30/5
f 85/27/6 86/28/6 87/29/6
f 85/27/6 87/29/6 88/30/6
f 89/27/3 90/28/3 91/29/3
f 89/27/3 91/29/3 92/30/3
f 93/27/6 94/28/6 95/29/6
f 93/27/6 95/29/6 96/30/6
f 97/27/3 98/28/3 99/29/3
f 97/27/3 99/29/3 100/30/3
f 101/27/6 102/28/6 103/29/6
f 101/27/6 103/29/6 104/30/6
f 105/27/3 106/28/3 107/29/3
f 105/27/3 107/29/3 108/30/3
f 109/27/6 110/28/6 111/29/6
f 109/27/6 111/29/6 112/30/6
f 113/27/3 114/28/3 115/29/3
f 113/27/3 115/29/3 116/30/3
f 117/31/5 118/32/5 119/33/7
f 117/31/5 119/33/7 120/34/8
f 120/34/8 119/33/7 121/35/6
f 120/34/8 121/35/6 122/36/6
f 123/36/9 124/35/1 125/37/1
f 123/36/9 125/37/1 126/38/1
f 127/31/2 128/32/2 129/33/10
f 127/31/2 129/33/10 130/34/11
f 130/34/11 129/33/10 131/35/3
f 130/34/11 131/35/3 123/36/9
f 132/31/5 133/32/5 134/33/7
f 132/31/5 134/33/7 135/34/8
f 135/34/8 134/33/7 136/35/6
f 135/34/8 136/35/6 137/36/6
f 138/36/9 139/35/1 140/37/1
f 138/36/9 140/37/1 141/38/1
f 142/31/2 143/32/2 144/33/10
f 142/31/2 144/33/10 145/34/11
f 145/34/11 144/33/10 146/35/3
f 145/34/11 146/35/3 138/36/9
f 147/31/5 148/32/5 149/33/7
f 147/31/5 149/33/7 150/34/8
f 150/34/8 149/33/7 151/35/6
f 150/34/8 151/35/6 152/36/6
f 153/36/9 154/35/1 155/37/1
f 153/36/9 155/37/1 156/38/1
f 157/31/2 158/32/2 159/33/10
f 157/31/2 159/33/10 160/34/11
f 160/34/11 159/33/10 161/35/3
f 160/34/11 161/35/3 153/36/9
f 162/31/5 163/32/5 164/33/7
f 162/31/5 164/33/7 165/34/8
f 165/34/8 164/33/7 166/35/6
f 165/34/8 166/35/6 167/36/6
f 168/36/9 169/35/1 170/37/1
f 168/36/9 170/37/1 171/38/1
f 172/31/2 173/32/2 174/33/10
f 172/31/2 174/33/10 175/34/11
f 175/34/11 174/33/10 176/35/3
f 175/34/11 176/35/3 168/36/9
f 177/39/5 178/40/5 179/41/5
f 177/39/5 179/41/5 180/42/5
f 181/39/5 182/40/5 183/41/5
f 181/39/5 183/41/5 184/42/5
f 185/43/5 186/44/5 187/45/5
f 185/43/5 187/45/5 188/46/5
f 189/43/5 190/44/5 191/45/5
f 189/43/5 191/45/5 192/46/5
f 193/21/1 194/22/1 195/23/1
f 193/21/1 195/23/1 196/24/1
f 197/21/4 198/22/4 199/23/4
f 197/21/4 199/23/4 200/24/4
f 201/47/1 202/48/1 203/3/1
f 201/47/1 203/3/1 204/4/1
f 205/47/1 206/48/1 207/3/1
f 205/47/1 207/3/1 208/4/1
f 209/49/6 211/50/6 212/51/6
f 209/49/6 212/51/6 210/52/6
f 213/53/6 215/54/6 216/55/6
f 213/53/6 216/55/6 214/56/6
f 217/57/3 219/58/3 220/59/3
f 217/57/3 220/59/3 218/60/3
f 221/61/3 223/62/3 224/63/3
f 221/61/3 224/63/3 222/64/3
f 225/65/2 227/66/2 228/67/2
f 225/65/2 228/67/2 226/68/2
f 229/68/2 231/67/2 232/69/2
f 229/68/2 232/69/2 230/70/2
f 233/71/6 235/72/6 236/73/6
f 233/71/6 236/73/6 234/74/6
f 237/74/3 239/73/3 240/75/3
f 237/74/3 240/75/3 238/76/3
f 246/77/5 245/78/5 242/15/5
f 246/77/5 242/15/5 241/16/5
f 248/79/5 247/80/5 244/19/5
f 248/79/5 244/19/5 243/20/5
f 249/13/6 250/14/6 251/15/6
f 249/13/6 251/15/6 252/16/6
f 253/17/6 254/18/6 255/19/6
f 253/17/6 255/19/6 256/20/6
