# Blender 4.0.2
# www.blender.org
mtllib rus_build_9et_03_LOD1_3.mtl
o rus_build_9et_03_LOD1
v 15.000000 84.000000 -16.000011
v -15.000000 84.000000 -16.000011
v 15.000000 -0.000002 -16.000000
v -15.000000 -0.000002 -16.000000
v -24.000000 84.000000 15.999987
v -24.000000 84.000000 -16.000011
v -65.000000 84.000000 -16.000011
v -65.000000 84.000000 15.999987
v -25.000000 8.000002 18.000000
v -25.000000 8.000002 15.999998
v -39.000000 8.000002 15.999998
v -39.000000 8.000002 18.000000
v -39.000000 8.000002 18.000000
v -39.000000 8.000002 15.999998
v -25.000000 8.000002 15.999998
v -25.000000 8.000002 18.000000
v 39.000000 8.000002 18.000000
v 39.000000 8.000002 15.999998
v 25.000000 8.000002 15.999998
v 25.000000 8.000002 18.000000
v 25.000000 8.000002 18.000000
v 25.000000 8.000002 15.999998
v 39.000000 8.000002 15.999998
v 39.000000 8.000002 18.000000
v 24.000000 84.000000 -16.000011
v 24.000000 84.000000 15.999987
v 65.000000 84.000000 15.999987
v 65.000000 84.000000 -16.000011
v 57.000000 87.000000 -12.000013
v 57.000000 83.000000 -12.000013
v 53.000000 83.000000 -12.000013
v 53.000000 87.000000 -12.000013
v 53.000000 83.000000 -8.000013
v 53.000000 87.000000 -8.000013
v 57.000000 87.000000 -12.000013
v 53.000000 87.000000 -12.000013
v 53.000000 87.000000 -8.000013
v 57.000000 87.000000 -8.000013
v 53.000000 87.000000 -8.000013
v 53.000000 83.000000 -8.000013
v 57.000000 83.000000 -8.000013
v 57.000000 87.000000 -8.000013
v 57.000000 83.000000 -12.000013
v 57.000000 87.000000 7.999986
v 57.000000 83.000000 7.999988
v 53.000000 83.000000 7.999988
v 53.000000 87.000000 7.999986
v 53.000000 83.000000 11.999987
v 53.000000 87.000000 11.999987
v 57.000000 87.000000 7.999986
v 53.000000 87.000000 7.999986
v 53.000000 87.000000 11.999987
v 57.000000 87.000000 11.999987
v 53.000000 87.000000 11.999987
v 53.000000 83.000000 11.999987
v 57.000000 83.000000 11.999987
v 57.000000 87.000000 11.999987
v 57.000000 83.000000 7.999988
v 24.000000 84.000000 15.999987
v -24.000000 84.000000 15.999987
v 24.000000 84.000000 -16.000011
v -24.000000 84.000000 -16.000011
v 16.000000 87.000000 11.999987
v 16.000000 83.000000 11.999987
v 20.000000 83.000000 11.999987
v 20.000000 87.000000 11.999987
v 20.000000 83.000000 7.999988
v 20.000000 87.000000 7.999986
v 16.000000 87.000000 11.999987
v 20.000000 87.000000 11.999987
v 20.000000 87.000000 7.999986
v 16.000000 87.000000 7.999986
v 20.000000 87.000000 7.999986
v 20.000000 83.000000 7.999988
v 16.000000 83.000000 7.999988
v 16.000000 87.000000 7.999986
v 16.000000 83.000000 11.999987
v 16.000000 87.000000 -8.000013
v 16.000000 83.000000 -8.000013
v 20.000000 83.000000 -8.000013
v 20.000000 87.000000 -8.000013
v 20.000000 83.000000 -12.000013
v 20.000000 87.000000 -12.000013
v 16.000000 87.000000 -8.000013
v 20.000000 87.000000 -8.000013
v 20.000000 87.000000 -12.000013
v 16.000000 87.000000 -12.000013
v 20.000000 87.000000 -12.000013
v 20.000000 83.000000 -12.000013
v 16.000000 83.000000 -12.000013
v 16.000000 87.000000 -12.000013
v 16.000000 83.000000 -8.000013
v -65.000000 84.000000 15.999987
v -15.000000 84.000000 15.999987
v -65.000000 44.000000 15.999994
v -15.000000 44.000000 15.999994
v -65.000000 44.000000 15.999994
v -15.000000 44.000000 15.999994
v -65.000000 0.000002 16.000000
v -15.000000 0.000002 16.000000
v 65.000000 84.000000 15.999987
v 15.000000 84.000000 15.999987
v 65.000000 44.000000 15.999994
v 15.000000 44.000000 15.999994
v 65.000000 44.000000 15.999994
v 15.000000 44.000000 15.999994
v 65.000000 0.000002 16.000000
v 15.000000 0.000002 16.000000
v 65.000000 84.000000 -16.000011
v 15.000000 84.000000 -16.000011
v 65.000000 44.000000 -16.000008
v 15.000000 44.000000 -16.000008
v 65.000000 44.000000 -16.000008
v 15.000000 44.000000 -16.000008
v 65.000000 -0.000002 -16.000000
v 15.000000 -0.000002 -16.000000
v -65.000000 84.000000 -16.000011
v -15.000000 84.000000 -16.000011
v -65.000000 44.000000 -16.000008
v -15.000000 44.000000 -16.000008
v -65.000000 44.000000 -16.000008
v -15.000000 44.000000 -16.000008
v -65.000000 -0.000002 -16.000000
v -15.000000 -0.000002 -16.000000
v 65.000000 84.000000 15.999987
v 65.000000 84.000000 -16.000011
v 65.000000 0.000002 16.000000
v 65.000000 -0.000002 -16.000000
v -65.000000 84.000000 -16.000011
v -65.000000 84.000000 15.999987
v -65.000000 -0.000002 -16.000000
v -65.000000 0.000002 16.000000
v -15.000000 84.000000 15.999987
v 15.000000 84.000000 15.999987
v -15.000000 0.000002 16.000000
v 15.000000 0.000002 16.000000
v 16.000000 76.000000 18.999989
v 16.000000 76.000000 15.999989
v -16.000000 76.000000 15.999989
v -16.000000 76.000000 18.999989
v -16.000000 4.000002 19.000000
v -16.000000 4.000002 16.000000
v 16.000000 4.000002 16.000000
v 16.000000 4.000002 19.000000
v -16.000000 84.000000 15.999987
v -16.000000 84.000000 18.999989
v -16.000000 0.000002 19.000000
v -16.000000 0.000002 16.000000
v -16.000000 0.000002 16.000000
v -16.000000 0.000002 19.000000
v -16.000000 84.000000 18.999989
v -16.000000 84.000000 15.999987
v 0.000000 84.000000 15.999987
v 0.000000 84.000000 18.999989
v 0.000000 0.000002 19.000000
v 0.000000 0.000002 16.000000
v 0.000000 0.000002 16.000000
v 0.000000 0.000002 19.000000
v 0.000000 84.000000 18.999989
v 0.000000 84.000000 15.999987
v 16.000000 84.000000 18.999989
v 16.000000 84.000000 15.999987
v 16.000000 0.000002 16.000000
v 16.000000 0.000002 19.000000
v 16.000000 0.000002 19.000000
v 16.000000 0.000002 16.000000
v 16.000000 84.000000 15.999987
v 16.000000 84.000000 18.999989
v -16.000000 76.000000 18.999989
v 16.000000 76.000000 18.999989
v -16.000000 4.000002 19.000000
v 16.000000 4.000002 19.000000
v -68.000000 76.000000 15.999989
v -65.000000 76.000000 15.999989
v -65.000000 76.000000 -16.000011
v -68.000000 76.000000 -16.000011
v -68.000000 3.999998 -16.000000
v -65.000000 3.999998 -16.000000
v -65.000000 4.000002 16.000000
v -68.000000 4.000002 16.000000
v -65.000000 84.000000 -16.000011
v -68.000000 84.000000 -16.000011
v -68.000000 -0.000002 -16.000000
v -65.000000 -0.000002 -16.000000
v -65.000000 -0.000002 -16.000000
v -68.000000 -0.000002 -16.000000
v -68.000000 84.000000 -16.000011
v -65.000000 84.000000 -16.000011
v -65.000000 84.000000 -0.000012
v -68.000000 84.000000 -0.000012
v -68.000000 0.000000 0.000000
v -65.000000 0.000000 0.000000
v -65.000000 0.000000 0.000000
v -68.000000 0.000000 0.000000
v -68.000000 84.000000 -0.000012
v -65.000000 84.000000 -0.000012
v -68.000000 84.000000 15.999987
v -65.000000 84.000000 15.999987
v -65.000000 0.000002 16.000000
v -68.000000 0.000002 16.000000
v -68.000000 0.000002 16.000000
v -65.000000 0.000002 16.000000
v -65.000000 84.000000 15.999987
v -68.000000 84.000000 15.999987
v -68.000000 76.000000 -16.000011
v -68.000000 76.000000 15.999989
v -68.000000 3.999998 -16.000000
v -68.000000 4.000002 16.000000
v 68.000000 76.000000 -16.000011
v 65.000000 76.000000 -16.000011
v 65.000000 76.000000 15.999989
v 68.000000 76.000000 15.999989
v 68.000000 4.000002 16.000000
v 65.000000 4.000002 16.000000
v 65.000000 3.999998 -16.000000
v 68.000000 3.999998 -16.000000
v 65.000000 84.000000 15.999987
v 68.000000 84.000000 15.999987
v 68.000000 0.000002 16.000000
v 65.000000 0.000002 16.000000
v 65.000000 0.000002 16.000000
v 68.000000 0.000002 16.000000
v 68.000000 84.000000 15.999987
v 65.000000 84.000000 15.999987
v 65.000000 84.000000 -0.000012
v 68.000000 84.000000 -0.000012
v 68.000000 0.000000 0.000000
v 65.000000 0.000000 0.000000
v 65.000000 0.000000 0.000000
v 68.000000 0.000000 0.000000
v 68.000000 84.000000 -0.000012
v 65.000000 84.000000 -0.000012
v 68.000000 84.000000 -16.000011
v 65.000000 84.000000 -16.000011
v 65.000000 -0.000002 -16.000000
v 68.000000 -0.000002 -16.000000
v 68.000000 -0.000002 -16.000000
v 65.000000 -0.000002 -16.000000
v 65.000000 84.000000 -16.000011
v 68.000000 84.000000 -16.000011
v 68.000000 76.000000 15.999989
v 68.000000 76.000000 -16.000011
v 68.000000 4.000002 16.000000
v 68.000000 3.999998 -16.000000
v -16.000000 76.000000 -19.000011
v -16.000000 76.000000 -16.000011
v 16.000000 76.000000 -16.000011
v 16.000000 76.000000 -19.000011
v 16.000000 3.999998 -19.000000
v 16.000000 3.999998 -16.000000
v -16.000000 3.999998 -16.000000
v -16.000000 3.999998 -19.000000
v 16.000000 84.000000 -16.000011
v 16.000000 84.000000 -19.000011
v 16.000000 -0.000002 -19.000000
v 16.000000 -0.000002 -16.000000
v 16.000000 -0.000002 -16.000000
v 16.000000 -0.000002 -19.000000
v 16.000000 84.000000 -19.000011
v 16.000000 84.000000 -16.000011
v 0.000000 84.000000 -16.000011
v 0.000000 84.000000 -19.000011
v 0.000000 -0.000002 -19.000000
v 0.000000 -0.000002 -16.000000
v 0.000000 -0.000002 -16.000000
v 0.000000 -0.000002 -19.000000
v 0.000000 84.000000 -19.000011
v 0.000000 84.000000 -16.000011
v -16.000000 84.000000 -19.000011
v -16.000000 84.000000 -16.000011
v -16.000000 -0.000002 -16.000000
v -16.000000 -0.000002 -19.000000
v -16.000000 -0.000002 -19.000000
v -16.000000 -0.000002 -16.000000
v -16.000000 84.000000 -16.000011
v -16.000000 84.000000 -19.000011
v 16.000000 76.000000 -19.000011
v -16.000000 76.000000 -19.000011
v 16.000000 3.999998 -19.000000
v -16.000000 3.999998 -19.000000
vn -0.0000 -0.0000 -1.0000
vn -0.0000 1.0000 -0.0000
vn -0.0000 -1.0000 -0.0000
vn -0.4472 0.0002 -0.8944
vn -0.8944 -0.0002 -0.4472
vn -1.0000 -0.0000 -0.0000
vn 0.4472 0.8944 -0.0000
vn -0.0000 -0.0000 1.0000
vn 0.4472 0.0002 0.8944
vn 0.8944 -0.0002 0.4472
vn 1.0000 -0.0000 -0.0000
vn -0.4472 -0.0002 -0.8944
vn -0.4472 0.8944 -0.0000
vn -0.4472 0.0003 -0.8944
vt 0.001871 0.390602
vt 0.001871 0.062477
vt 0.123158 0.062477
vt 0.123158 0.390602
vt 0.843750 0.125000
vt 0.843750 0.000000
vt 1.000000 0.000000
vt 1.000000 0.125000
vt 0.781317 0.143087
vt 0.781317 0.154661
vt 0.722712 0.154661
vt 0.722712 0.143087
vt 0.859375 0.187500
vt 0.859375 0.171875
vt 0.875000 0.171875
vt 0.875000 0.187500
vt 0.890625 0.171875
vt 0.890625 0.187500
vt 0.906250 0.171875
vt 0.906250 0.187500
vt 0.796875 0.125000
vt 0.796875 0.000000
vt 0.984375 0.000000
vt 0.984375 0.125000
vt 0.437517 0.390602
vt 0.437517 0.234352
vt 0.625017 0.234352
vt 0.625017 0.390602
vt 0.437517 0.359349
vt 0.437517 0.187474
vt 0.625017 0.187474
vt 0.625017 0.359349
vt 0.812517 0.999977
vt 0.812517 0.843727
vt 1.000017 0.843727
vt 1.000017 0.999977
vt 0.812517 0.968724
vt 0.812517 0.796849
vt 1.000017 0.796849
vt 1.000017 0.968724
vt 0.000000 0.390602
vt 0.000000 0.062477
vt 0.125000 0.062477
vt 0.125000 0.390602
vt 0.840571 0.143087
vt 0.840571 0.154661
vt 0.998698 0.144531
vt 0.998698 0.154622
vt 0.688802 0.154622
vt 0.688802 0.144531
vt 0.000000 0.359375
vt 0.000000 0.078125
vt 0.125000 0.078125
vt 0.125000 0.359375
s 1
usemtl rus_build_LOD_02.005
f 1/1/1 3/2/1 4/3/1
f 1/1/1 4/3/1 2/4/1
f 5/5/2 6/6/2 7/7/2
f 5/5/2 7/7/2 8/8/2
f 9/9/2 10/10/2 11/11/2
f 9/9/2 11/11/2 12/12/2
f 13/9/3 14/10/3 15/11/3
f 13/9/3 15/11/3 16/12/3
f 17/9/2 18/10/2 19/11/2
f 17/9/2 19/11/2 20/12/2
f 21/9/3 22/10/3 23/11/3
f 21/9/3 23/11/3 24/12/3
f 25/5/2 26/6/2 27/7/2
f 25/5/2 27/7/2 28/8/2
f 29/13/1 30/14/1 31/15/4
f 29/13/1 31/15/4 32/16/5
f 32/16/5 31/15/4 33/17/6
f 32/16/5 33/17/6 34/18/6
f 35/18/7 36/17/2 37/19/2
f 35/18/7 37/19/2 38/20/2
f 39/13/8 40/14/8 41/15/9
f 39/13/8 41/15/9 42/16/10
f 42/16/10 41/15/9 43/17/11
f 42/16/10 43/17/11 35/18/7
f 44/13/1 45/14/1 46/15/12
f 44/13/1 46/15/12 47/16/5
f 47/16/5 46/15/12 48/17/6
f 47/16/5 48/17/6 49/18/6
f 50/18/7 51/17/2 52/19/2
f 50/18/7 52/19/2 53/20/2
f 54/13/8 55/14/8 56/15/9
f 54/13/8 56/15/9 57/16/10
f 57/16/10 56/15/9 58/17/11
f 57/16/10 58/17/11 50/18/7
f 59/21/2 61/22/2 62/23/2
f 59/21/2 62/23/2 60/24/2
f 63/13/8 64/14/8 65/15/9
f 63/13/8 65/15/9 66/16/10
f 66/16/10 65/15/9 67/17/11
f 66/16/10 67/17/11 68/18/11
f 69/18/13 70/17/2 71/19/2
f 69/18/13 71/19/2 72/20/2
f 73/13/1 74/14/1 75/15/14
f 73/13/1 75/15/14 76/16/5
f 76/16/5 75/15/14 77/17/6
f 76/16/5 77/17/6 69/18/13
f 78/13/8 79/14/8 80/15/9
f 78/13/8 80/15/9 81/16/10
f 81/16/10 80/15/9 82/17/11
f 81/16/10 82/17/11 83/18/11
f 84/18/13 85/17/2 86/19/2
f 84/18/13 86/19/2 87/20/2
f 88/13/1 89/14/1 90/15/4
f 88/13/1 90/15/4 91/16/5
f 91/16/5 90/15/4 92/17/6
f 91/16/5 92/17/6 84/18/13
f 93/25/8 95/26/8 96/27/8
f 93/25/8 96/27/8 94/28/8
f 97/29/8 99/30/8 100/31/8
f 97/29/8 100/31/8 98/32/8
f 104/27/8 103/26/8 101/25/8
f 102/28/8 104/27/8 101/25/8
f 108/31/8 107/30/8 105/29/8
f 106/32/8 108/31/8 105/29/8
f 109/33/1 111/34/1 112/35/1
f 109/33/1 112/35/1 110/36/1
f 113/37/1 115/38/1 116/39/1
f 113/37/1 116/39/1 114/40/1
f 120/35/1 119/34/1 117/33/1
f 118/36/1 120/35/1 117/33/1
f 124/39/1 123/38/1 121/37/1
f 122/40/1 124/39/1 121/37/1
f 125/41/11 127/42/11 128/43/11
f 125/41/11 128/43/11 126/44/11
f 129/41/6 131/42/6 132/43/6
f 129/41/6 132/43/6 130/44/6
f 133/1/8 135/2/8 136/3/8
f 133/1/8 136/3/8 134/4/8
f 137/45/2 138/46/2 139/11/2
f 137/45/2 139/11/2 140/12/2
f 141/45/3 142/46/3 143/11/3
f 141/45/3 143/11/3 144/12/3
f 145/47/11 146/48/11 147/49/11
f 145/47/11 147/49/11 148/50/11
f 149/47/6 150/48/6 151/49/6
f 149/47/6 151/49/6 152/50/6
f 153/47/11 154/48/11 155/49/11
f 153/47/11 155/49/11 156/50/11
f 157/47/6 158/48/6 159/49/6
f 157/47/6 159/49/6 160/50/6
f 161/47/6 162/48/6 163/49/6
f 161/47/6 163/49/6 164/50/6
f 165/47/11 166/48/11 167/49/11
f 165/47/11 167/49/11 168/50/11
f 169/51/8 171/52/8 172/53/8
f 169/51/8 172/53/8 170/54/8
f 173/45/2 174/46/2 175/11/2
f 173/45/2 175/11/2 176/12/2
f 177/45/3 178/46/3 179/11/3
f 177/45/3 179/11/3 180/12/3
f 181/47/8 182/48/8 183/49/8
f 181/47/8 183/49/8 184/50/8
f 185/47/1 186/48/1 187/49/1
f 185/47/1 187/49/1 188/50/1
f 189/47/8 190/48/8 191/49/8
f 189/47/8 191/49/8 192/50/8
f 193/47/1 194/48/1 195/49/1
f 193/47/1 195/49/1 196/50/1
f 197/47/1 198/48/1 199/49/1
f 197/47/1 199/49/1 200/50/1
f 201/47/8 202/48/8 203/49/8
f 201/47/8 203/49/8 204/50/8
f 205/51/6 207/52/6 208/53/6
f 205/51/6 208/53/6 206/54/6
f 209/45/2 210/46/2 211/11/2
f 209/45/2 211/11/2 212/12/2
f 213/45/3 214/46/3 215/11/3
f 213/45/3 215/11/3 216/12/3
f 217/47/1 218/48/1 219/49/1
f 217/47/1 219/49/1 220/50/1
f 221/47/8 222/48/8 223/49/8
f 221/47/8 223/49/8 224/50/8
f 225/47/1 226/48/1 227/49/1
f 225/47/1 227/49/1 228/50/1
f 229/47/8 230/48/8 231/49/8
f 229/47/8 231/49/8 232/50/8
f 233/47/8 234/48/8 235/49/8
f 233/47/8 235/49/8 236/50/8
f 237/47/1 238/48/1 239/49/1
f 237/47/1 239/49/1 240/50/1
f 241/51/11 243/52/11 244/53/11
f 241/51/11 244/53/11 242/54/11
f 245/45/2 246/46/2 247/11/2
f 245/45/2 247/11/2 248/12/2
f 249/45/3 250/46/3 251/11/3
f 249/45/3 251/11/3 252/12/3
f 253/47/6 254/48/6 255/49/6
f 253/47/6 255/49/6 256/50/6
f 257/47/11 258/48/11 259/49/11
f 257/47/11 259/49/11 260/50/11
f 261/47/6 262/48/6 263/49/6
f 261/47/6 263/49/6 264/50/6
f 265/47/11 266/48/11 267/49/11
f 265/47/11 267/49/11 268/50/11
f 269/47/11 270/48/11 271/49/11
f 269/47/11 271/49/11 272/50/11
f 273/47/6 274/48/6 275/49/6
f 273/47/6 275/49/6 276/50/6
f 277/51/1 279/52/1 280/53/1
f 277/51/1 280/53/1 278/54/1
